PathFileType	4	(x/y/z)	S05_M20_T02
DataRate	CameraRate	NumFrames	NumMarkers	Units	OrigDataRate	OrigDataStartFrame	OrigNumFrames
240	240	5	50	mm	240	1	546
Frame#	Time	Sternum			R.Acromium			L.Acromium			Top.Head			R.ASIS			L.ASIS			R.PSIS			L.PSIS			R.Great.Tro			L.Great.Tro			R.Iliac.Crest			L.Iliac.Crest			V.Sacral			R.Thigh.Upper.Post			R.Thigh.Lower.Ant			R.Thigh.Lower.Post			R.Thigh.Upper.Ant			R.Knee.Lat			R.Knee.Med			R.Shank.Upper.Post			R.Shank.Lower.Ant			R.Shank.Lower.Post			R.Shank.Upper.Ant			R.Ankle.Lat			R.Ankle.Med			R.Heel.Upper			R.Heel.Med			R.Heel.Lat			R.Toe.Lat			R.Toe.Med			R.Toe.Tip			L.Thigh.Upper.Post			L.Thigh.Lower.Ant			L.Thigh.Lower.Post			L.Thigh.Upper.Ant			L.Knee.Lat			L.Shank.Upper.Post			L.Shank.Lower.Ant			L.Shank.Lower.Post			L.Shank.Upper.Ant			L.Ankle.Lat			L.Ankle.Med			L.Heel.Upper			L.Heel.Med			L.Heel.Lat			L.Toe.Lat			L.Toe.Med			L.Toe.Tip			Cervical.Spine			Back			
		X1	Y1	Z1	X2	Y2	Z2	X3	Y3	Z3	X4	Y4	Z4	X5	Y5	Z5	X6	Y6	Z6	X7	Y7	Z7	X8	Y8	Z8	X9	Y9	Z9	X10	Y10	Z10	X11	Y11	Z11	X12	Y12	Z12	X13	Y13	Z13	X14	Y14	Z14	X15	Y15	Z15	X16	Y16	Z16	X17	Y17	Z17	X18	Y18	Z18	X19	Y19	Z19	X20	Y20	Z20	X21	Y21	Z21	X22	Y22	Z22	X23	Y23	Z23	X24	Y24	Z24	X25	Y25	Z25	X26	Y26	Z26	X27	Y27	Z27	X28	Y28	Z28	X29	Y29	Z29	X30	Y30	Z30	X31	Y31	Z31	X32	Y32	Z32	X33	Y33	Z33	X34	Y34	Z34	X35	Y35	Z35	X36	Y36	Z36	X37	Y37	Z37	X38	Y38	Z38	X39	Y39	Z39	X40	Y40	Z40	X41	Y41	Z41	X42	Y42	Z42	X43	Y43	Z43	X44	Y44	Z44	X45	Y45	Z45	X46	Y46	Z46	X47	Y47	Z47	X48	Y48	Z48	X49	Y49	Z49	X50	Y50	Z50	

1	0	-860.73	1223.3	327.21	-953.88	1486.6	475.12	-951.91	1496.8	141.63	-947.69	1785.8	285.85	-948.85	971.58	464.48	-902.96	970.91	216.97	-1130	998.69	339.09	-1112.8	990.52	249.13	-1056.4	907.06	509.12	-966.27	893.14	123.1	-1038.5	1063.1	484.26	-989.72	1046.1	151.16	-1139.1	963.47	307.46	-1066.6	677	502.17	-1033.2	590.62	454.73	-1102.8	597.06	475.38	-999.5	670.14	482.42	-1146.3	509.75	454.23	-1129.5	495.14	318.93	-1310.6	315.46	432.5	-1279.8	231.04	430.56	-1346	249.77	413.76	-1250.5	301.5	448.24	-1343.4	144.48	410.71	-1309.4	165	322.15	-1419.1	107.37	345.86	-1412	71.491	320.55	-1419.1	81.793	383.94	-1262.4	40.76	451.21	-1217.8	37.223	332.41	-1157.3	45.974	382.1	-870.21	670.29	126.72	-770.01	639.03	165.19	-821.38	589.87	145.44	-810.38	719.27	148.63	-768.63	523.32	155.78	-725.22	318.32	149.86	-637.6	303.06	151.48	-690.63	254.78	168.23	-675.43	362	140.91	-587.74	155.56	170.52	-564.5	187.33	256.54	-601.21	74.72	226.62	-574.96	64.454	257.8	-586.76	55.68	196.27	-436.83	160.17	135.43	-423.4	189.08	251.9	-383.19	235.29	194.09	-1003.7	1530.4	313.46	-1128.7	1257	312.45
2	0.0041667	-855.55	1222.4	326.71	-948.93	1485.8	474.29	-946.74	1495.6	140.73	-942.93	1784.8	284.63	-943.95	970.65	464.21	-897.61	969.84	216.76	-1124.9	997.89	338.48	-1107.4	989.68	248.56	-1051.7	906.37	508.67	-960.74	892.23	122.78	-1033.6	1062.3	483.78	-984.31	1045	150.74	-1134	962.67	306.87	-1062.6	676.41	501.96	-1029.3	589.84	454.96	-1099	596.49	475.33	-995.48	669.33	482.57	-1142.7	509.33	454.38	-1125.7	494.42	319.19	-1308.6	316.03	432.67	-1278.2	231.51	430.73	-1344.1	250.61	413.86	-1248.4	301.73	448.43	-1342.4	145.46	410.86	-1308.2	165.74	322.37	-1418.4	108.96	346.02	-1411.6	73.073	320.64	-1418.9	83.36	384.07	-1262.3	40.869	451.29	-1217.7	37.279	332.48	-1157.3	45.853	382.19	-864.68	669.43	126.53	-764.61	638.13	165.33	-815.94	589	145.4	-804.9	718.37	148.63	-763.45	522.18	155.7	-722.01	316.93	149.47	-634.82	300.54	151.57	-688.34	252.91	167.92	-671.98	359.88	140.95	-586.85	152.58	170.48	-563.58	183.96	256.58	-601.34	71.876	226.44	-575.11	61.275	257.64	-586.85	52.672	196.13	-436.04	155.96	135.63	-422.49	184.41	252.2	-381.85	230.46	194.58	-998.68	1529.4	312.51	-1123.5	1256	311.72
3	0.0083333	-850.14	1221.4	326.19	-943.75	1485	473.41	-941.34	1494.3	139.78	-937.96	1783.8	283.34	-938.83	969.69	463.93	-892.03	968.73	216.54	-1119.5	997.06	337.84	-1101.9	988.82	247.96	-1046.8	905.65	508.19	-954.96	891.29	122.43	-1028.4	1061.5	483.28	-978.65	1043.9	150.28	-1128.6	961.83	306.25	-1058.5	675.79	501.73	-1025.3	589.04	455.2	-1095	595.89	475.28	-991.28	668.5	482.73	-1139.1	508.89	454.54	-1121.7	493.65	319.47	-1306.5	316.65	432.84	-1276.5	232.02	430.9	-1342.1	251.49	413.95	-1246.1	301.98	448.63	-1341.3	146.51	411.02	-1307	166.52	322.61	-1417.6	110.65	346.19	-1411	74.753	320.73	-1418.7	85.031	384.21	-1262.2	40.983	451.36	-1217.6	37.336	332.56	-1157.2	45.725	382.29	-858.95	668.53	126.33	-759.02	637.17	165.45	-810.32	588.08	145.35	-799.2	717.41	148.62	-758.1	520.99	155.61	-718.68	315.49	149.08	-631.92	297.95	151.66	-685.96	250.99	167.61	-668.4	357.68	141	-585.87	149.52	170.45	-562.57	180.5	256.61	-601.44	69.036	226.25	-575.24	58.077	257.49	-586.9	49.645	196	-435.18	151.61	135.82	-421.49	179.59	252.5	-380.39	225.46	195.07	-993.39	1528.4	311.51	-1118.1	1255	310.97
4	0.0125	-844.53	1220.4	325.64	-938.38	1484.1	472.49	-935.76	1493	138.8	-932.82	1782.7	282.01	-933.5	968.71	463.62	-886.25	967.6	216.31	-1113.9	996.21	337.18	-1096.1	987.94	247.33	-1041.7	904.91	507.68	-948.97	890.32	122.07	-1023	1060.6	482.75	-972.77	1042.8	149.8	-1123	960.98	305.6	-1054.2	675.16	501.49	-1021.1	588.21	455.46	-1090.8	595.28	475.23	-986.9	667.64	482.9	-1135.2	508.44	454.7	-1117.6	492.86	319.77	-1304.2	317.33	433.02	-1274.7	232.57	431.09	-1339.9	252.41	414.05	-1243.8	302.27	448.83	-1340.2	147.6	411.19	-1305.7	167.34	322.87	-1416.8	112.44	346.37	-1410.5	76.529	320.83	-1418.5	86.805	384.36	-1262	41.101	451.44	-1217.4	37.395	332.63	-1157.2	45.59	382.39	-853.06	667.59	126.12	-753.26	636.14	165.54	-804.55	587.11	145.3	-793.31	716.4	148.58	-752.61	519.74	155.52	-715.26	314.01	148.72	-628.92	295.31	151.76	-683.48	249.02	167.31	-664.71	355.44	141.05	-584.82	146.44	170.41	-561.46	176.99	256.65	-601.5	66.244	226.07	-575.32	54.905	257.34	-586.89	46.644	195.89	-434.23	147.14	136.02	-420.4	174.66	252.78	-378.83	220.33	195.54	-987.9	1527.4	310.48	-1112.5	1253.9	310.18
5	0.016667	-838.74	1219.4	325.06	-932.83	1483.3	471.54	-930.01	1491.7	137.78	-927.53	1781.7	280.63	-928	967.72	463.31	-880.31	966.46	216.06	-1108.1	995.35	336.49	-1090.2	987.04	246.68	-1036.5	904.15	507.16	-942.81	889.33	121.7	-1017.5	1059.7	482.21	-966.71	1041.7	149.3	-1117.2	960.11	304.93	-1049.7	674.5	501.24	-1016.7	587.37	455.72	-1086.5	594.65	475.18	-982.36	666.77	483.07	-1131.2	507.98	454.86	-1113.3	492.03	320.09	-1301.8	318.08	433.2	-1272.8	233.16	431.29	-1337.7	253.37	414.14	-1241.3	302.59	449.05	-1339	148.76	411.37	-1304.3	168.19	323.14	-1415.8	114.32	346.56	-1409.8	78.401	320.93	-1418.4	88.679	384.52	-1261.9	41.224	451.53	-1217.3	37.453	332.72	-1157.1	45.449	382.5	-847.04	666.61	125.91	-747.39	635.05	165.61	-798.69	586.1	145.23	-787.28	715.34	148.51	-747.02	518.46	155.42	-711.77	312.5	148.37	-625.83	292.63	151.85	-680.92	247.03	167.03	-660.93	353.18	141.11	-583.67	143.34	170.38	-560.24	173.48	256.69	-601.51	63.548	225.88	-575.36	51.807	257.21	-586.83	43.714	195.78	-433.2	142.58	136.21	-419.2	169.67	253.05	-377.16	215.1	195.98	-982.26	1526.3	309.41	-1106.8	1252.9	309.37
